<svg xmlns="http://www.w3.org/2000/svg" width="136" height="164" viewBox="0 0 136 164">
  <g fill="#FFF">
    <path
      d="M93.1 38.8c8.2 0 15-5.6 17-13l5.4.7h.3a2.2 2.2 0 0 0 .3-4.2l-5.5-.9v-.1-.5s-.5-6.6-1-9.3c-.7-2.7-2.6-3.3-2.6-3.3C97.2 6 87.2 5.8 84.6 5.8S81.4 7 81.4 7l-3.1 5-.2.4a17.5 17.5 0 0 0 15.1 26.2zM131.5 78l-26.7-2-9.3-21.2s-.4-2.8-6-8.5C84 40.6 72.7 43 72.7 43S49 47.4 41 49.2c-7.9 1.9-8.2 10-8.2 10l-.6 4.4-15.2-3a3 3 0 0 0-3.5 2.5l-7.4 38.2a3 3 0 0 0 2.4 3.5l51.2 10h.3-1.3l-9.4-2-3 17.2-23.6 20.4a7.4 7.4 0 1 0 9.8 11L62.1 138C64 136.3 65 134 65 134s4.5-14 5.8-16.9c.8-2 4.9-1 4.9-1l22.9 8.6 7.6 29c0 .7.2 1.3.5 1.8a7.4 7.4 0 0 0 14-4.5c-.8-5-4.5-27-5.5-31.8-1-5.4-4.6-7-4.6-7L87.8 100c-1.3-.7-1-2.7-1-2.7l3.9-14.4 2.8 5.9s1.6 3.3 4 3.4l33.4.8a7.4 7.4 0 0 0 .6-14.8zM60.1 62.9l-1.8 5.9 10 2-20.3-4 .5-2.5 11.6-1.4zm-2.2 45.5l-45.3-8.8 6.2-32.4 12.6 2.5L29.7 81l-.6 4.4v1.3a7.4 7.4 0 1 0 14.7-1l3-13.3L64 76 58 108.3zM25 17h38a2 2 0 0 0 2-2c0-1-.8-2-2-2H25a2 2 0 0 0-2 2c0 1.1 1 2 2 2zM38 23a2 2 0 0 0-2 2c0 1.1 1 2 2 2h23a2 2 0 0 0 2-2c0-1-.9-2-2-2H38z"/>
  </g>
  <path fill="#3A3A3A"
        d="M87.1 32.7c8.1 0 15-5.5 16.9-13l5.5.8h.3a2.2 2.2 0 0 0 .3-4.3l-5.5-.8v-.1-.6s-.5-6.5-1.1-9.2c-.6-2.7-2.6-3.3-2.6-3.3C91.2 0 81.2-.2 78.6-.2S75.4 1 75.4 1l-3.1 5-.3.3a17.5 17.5 0 0 0 15.1 26.2zM125.5 72L98.8 70l-9.3-21.1s-.4-2.8-6-8.5c-5.5-5.7-16.8-3.4-16.8-3.4S42.8 41.4 35 43.2c-7.9 1.9-8.2 9.9-8.2 9.9l-3 22-.7 4.4v.2l-.1 1a7.4 7.4 0 1 0 14.8-1l4.7-21.5 11.6-1.4-1.8 5.9 9.9 1.9a3 3 0 0 1 2.4 3.5L57 106.3a3 3 0 0 1-3 2.5H54l-1.3-.1-9.4-1.8-3.1 17-23.6 20.4a7.4 7.4 0 1 0 9.9 11.1l29.6-23.6c1.8-1.5 2.7-3.8 2.7-3.8s4.6-14 5.8-17c.9-2 5-1 5-1l22.8 8.6 7.7 29.1c0 .6.2 1.2.4 1.8a7.4 7.4 0 0 0 14.1-4.5l-5.5-31.8c-1.1-5.4-4.6-7-4.6-7L81.8 94c-1.4-.8-1-2.8-1-2.8l3.9-14.3 2.7 5.9s1.7 3.2 4.1 3.4l33.4.8a7.4 7.4 0 0 0 .6-14.9z"/>
  <path fill="#F0C42E"
        d="M54 108.7h.2a3 3 0 0 0 3-2.4l7.4-38.2a3 3 0 0 0-2.4-3.5l-20.2-4-1.3 6L58 69.8l-6.3 32.3-45.3-8.7L12.8 61l12.5 2.4.9-6L11 54.7A3 3 0 0 0 7.5 57L0 95.3a3 3 0 0 0 2.3 3.5l51.2 10h.4z"/>
  <path fill="#F0C52E"
        d="M59 9c0 1-.9 2-2 2H19a2 2 0 0 1-2-2c0-1.1 1-2 2-2h38a2 2 0 0 1 2 2zM57 19c0 1-.9 2-2 2H32a2 2 0 0 1-2-2c0-1.1 1-2 2-2h23a2 2 0 0 1 2 2z"/>
</svg>
