<svg xmlns="http://www.w3.org/2000/svg" width="160" height="160" viewBox="0 0 160 160" fill="#363636">
  <path
    d="M115.1 84.6V72c0-1.3 1-2.4 2.4-2.4l8.3 1.6V63c0-2.3-1.7-3.4-4.2-4.2l-23.2-6.6c1.6 1.4 1.9 2 1.9 4.4v45.2c0 2.3-.5 4-2 5.2l23.3-7c2.4-1 4.2-4.3 4.2-6.6v-8l-8.3 1.6c-1.3 0-2.4-1-2.4-2.4zm11-11.6l-7.6-1.5c-1 0-1.8.9-1.8 1.9v9.9c0 1 .8 1.8 1.8 1.8l7.6-1.4c1.2-.4 1.9-.9 1.9-1.9v-7c0-1-.8-1.5-1.9-1.8zM98.2 56.5c0-5.1-4.3-4.5-4.3-4.5S37 56.7 34 57.1s-3 4.4-3 4.4v36.3c0 3.7 2.6 3.8 2.6 3.8l16.5 1.4 8.1-11.7s1.1-1.8 2.5-1.8 2.4 1.8 2.4 1.8l9.1 13.7s18.9 1.9 22.5 1.9c3.7 0 3.5-5 3.5-5V56.4zM44 89.2c-3.7 0-6.7-4.6-6.7-10.3s3-10.3 6.7-10.3 6.7 4.6 6.7 10.3-3 10.3-6.7 10.3zm36 1.4c-4.6 0-8.4-5.2-8.4-11.7 0-6.4 3.8-11.7 8.4-11.7 4.7 0 8.5 5.3 8.5 11.7 0 6.5-3.8 11.7-8.5 11.7z"/>
</svg>
