<svg xmlns="http://www.w3.org/2000/svg" width="160" height="160" viewBox="0 0 160 160">
  <g fill="#363636" transform="translate(49 35)" opacity="0.3">
    <path
      d="M53.3 1.5C53.3.8 52.8 0 52 0H9c-.7 0-1.3.8-1.3 1.5V5h45.6V1.5zm.9 80.3h-9.6V71.4h-7V74H18.8a3.5 3.5 0 0 0-3.2-2.1h-12c-2 0-3.6 1.6-3.6 3.5v3c0 2 1.6 3.5 3.6 3.5h12c1.5 0 2.8-.9 3.3-2.3h18.7v2.3h-9.5a1 1 0 0 0-1 1V86c0 .5.5 1 1 1h26.1c.5 0 1-.5 1-1v-3.2c0-.6-.5-1-1-1zm6.5-69.4a7 7 0 0 0-6.8-5H7a7 7 0 0 0-7.1 7v46.9c0 3.9 3.3 7 7.1 7h47a7 7 0 0 0 7.1-7V50.9a23.2 23.2 0 0 0-.3-38.5zM12.2 62.2a6 6 0 1 1 0-11.9 6 6 0 0 1 0 11.9zm6-32.7c0 .8-.6 1.5-1.4 1.5h-9c-.7 0-1.4-.7-1.4-1.5V15.4c0-.8.7-1.4 1.4-1.4h9c.8 0 1.4.6 1.4 1.4v14.1zM47.8 52a20 20 0 1 1 0-40.2 20 20 0 0 1 0 40.2z"/>
    <ellipse cx="47.8" cy="31.7" rx="12.2" ry="12.2"/>
    <circle cx="31.6" cy="31.7" r="1.4"/>
    <circle cx="64" cy="31.7" r="1.4"/>
    <circle cx="39.1" cy="18" r="1.4"/>
    <ellipse cx="56.4" cy="45.5" rx="1.4" ry="1.4"/>
    <circle cx="55.7" cy="17.6" r="1.4"/>
    <circle cx="39.8" cy="45.9" r="1.4"/>
  </g>
</svg>
