<svg xmlns="http://www.w3.org/2000/svg" width="160" height="160" viewBox="0 0 160 160">
  <path
    d="M120.8 45H41.3a3.2 3.2 0 0 0-3.2 3.2v46.4c0 1.8 1.5 3.2 3.2 3.2h79.5c1.8 0 3.2-1.4 3.2-3.2V48.2c0-1.8-1.4-3.2-3.2-3.2zM46.4 78.2h-.2A3.2 3.2 0 0 1 43 75v-7.2c0-1.8 1.4-3.2 3.2-3.2h.2v13.6zm61.2 15.2H51.3v-44h56.3v44zm8.8-17.8a4.1 4.1 0 1 1 0-8.3 4.1 4.1 0 0 1 0 8.3zM69.5 41h23.2v2.8H69.5zm15.1 64.9v-3h8V100h-23v3h8v35a6 6 0 0 0-3.6 5.6V158h14.3v-14.3a6 6 0 0 0-3.6-5.6v-28h4.8l5 1.3v-6.8l-5 1.3h-4.8z"
    fill="#363636"/>
</svg>
